Coordinates
version=1
nRows=8
nColumns=42
inDegrees=yes

Units are S.I. units (second, meters, Newtons, ...)
If the header above contains a line with 'inDegrees', this indicates whether rotational values are in degrees (yes) or radians (no).

endheader
time	pelvis_tilt	pelvis_list	pelvis_rotation	pelvis_tx	pelvis_ty	pelvis_tz	hip_flexion_r	hip_adduction_r	hip_rotation_r	knee_angle_r	knee_adduction_r	knee_angle_r_beta	ankle_angle_r	subtalar_angle_r	mtp_angle_r	hip_flexion_l	hip_adduction_l	hip_rotation_l	knee_angle_l	knee_adduction_l	knee_angle_l_beta	ankle_angle_l	subtalar_angle_l	mtp_angle_l	lumbar_extension	lumbar_bending	lumbar_rotation	arm_flex_r	arm_add_r	arm_rot_r	elbow_flex_r	pro_sup_r	wrist_flex_r	wrist_dev_r	arm_flex_l	arm_add_l	arm_rot_l	elbow_flex_l	pro_sup_l	wrist_flex_l	wrist_dev_l
      4.25000000	     12.55411446	      0.77989727	      3.17504107	      0.20161078	      0.88430866	     -0.14013823	     -8.81164530	      2.05500767	    -17.46741997	     24.26239008	      0.28017382	      0.42345859	     23.83727945	     28.28479149	     -7.50101677	     16.16643554	     -2.24866073	     -6.73921510	     31.38669968	     -2.57033776	      0.54780125	     11.23415440	     16.08074633	     -7.50101677	    -30.63372319	      4.17786040	     -3.11208672	      6.37132612	    -11.57621183	     -2.99236632	     49.82862058	     90.00000001	      0.00000000	      0.00000000	     13.94733112	     -9.81699884	     25.67692346	     51.27459896	     90.00000001	      0.00000000	      0.00000000
      4.26000000	     12.58870986	      0.72229691	      3.17151257	      0.20461798	      0.88391408	     -0.14030346	     -9.06617982	      2.08102132	    -17.45960191	     24.31868933	      0.36498662	      0.42444120	     23.87910629	     28.17546619	     -7.50101230	     16.42126680	     -2.24433917	     -6.92590724	     31.16338771	     -2.44728856	      0.54390372	     11.25383990	     16.12926121	     -7.50101230	    -30.58336403	      4.24252439	     -3.14918906	      6.29560416	    -11.64960122	     -2.95884683	     49.75285457	     90.00000001	      0.00000000	      0.00000000	     13.88874732	     -9.82307315	     25.62057859	     51.26842217	     90.00000001	      0.00000000	      0.00000000
      4.27000000	     12.61428279	      0.68365024	      3.19299014	      0.20757178	      0.88351476	     -0.14054703	     -9.28035600	      2.12504674	    -17.39272704	     24.40606373	      0.36722860	      0.42596617	     23.89392881	     28.09782490	     -7.50100877	     16.67766506	     -2.20103991	     -7.03852991	     31.00262492	     -2.31620859	      0.54109788	     11.26254439	     16.13883335	     -7.50100877	    -30.54452322	      4.33032029	     -3.20788430	      6.19914314	    -11.75091632	     -2.95606656	     49.67874870	     90.00000001	      0.00000000	      0.00000000	     13.92139493	     -9.85156498	     25.56704920	     51.28549618	     90.00000001	      0.00000000	      0.00000000
      4.28000000	     12.90073884	      0.73817045	      3.07814609	      0.21089962	      0.88370461	     -0.14078456	     -9.95353658	      2.01840633	    -17.14518079	     24.23882984	      0.53612389	      0.42304739	     24.24425994	     27.91843658	     -7.50099372	     16.32180018	     -2.04261287	     -7.15864348	     30.29889920	     -2.19649761	      0.52881555	     11.27787541	     16.83487630	     -7.50099372	    -30.73541495	      4.28272689	     -3.32511517	      6.34574502	    -11.87748378	     -2.55473510	     49.07259434	     90.00000001	      0.00000000	      0.00000000	     13.77841252	     -9.79507479	     25.23564745	     51.20129646	     90.00000001	      0.00000000	      0.00000000
      4.29000000	     12.90429979	      0.67635411	      3.09747356	      0.21382317	      0.88327171	     -0.14101466	    -10.16042756	      2.06822005	    -17.15276020	     24.28892547	      0.56240044	      0.42392172	     24.25797951	     27.86276871	     -7.50099072	     16.57747265	     -2.01319964	     -7.28303482	     30.16968260	     -2.08549741	      0.52656030	     11.29228307	     16.80880215	     -7.50099072	    -30.70898198	      4.36257853	     -3.35960401	      6.27744209	    -11.95278729	     -2.55474936	     49.01584267	     90.00000001	      0.00000000	      0.00000000	     13.83186682	     -9.81905269	     25.19861566	     51.21936439	     90.00000001	      0.00000000	      0.00000000
      4.30000000	     13.04234993	      0.60447557	      3.11645959	      0.21697345	      0.88308335	     -0.14132380	    -10.60775741	      2.13693777	    -17.21378574	     24.17460645	      0.59499415	      0.42192648	     24.50087862	     27.96428729	     -7.50098795	     16.54003502	     -1.98140384	     -7.35532766	     29.84125536	     -1.97363951	      0.52082816	     11.32491990	     16.95255629	     -7.50098795	    -30.78325423	      4.47435043	     -3.42763416	      6.33728633	    -12.04669626	     -2.45598370	     48.64023306	     90.00000001	      0.00000000	      0.00000000	     13.81530078	     -9.80473855	     25.16916401	     51.13454827	     90.00000001	      0.00000000	      0.00000000
      4.31000000	     13.04075929	      0.54816935	      3.11805724	      0.22003358	      0.88264442	     -0.14166895	    -10.82632925	      2.16961674	    -17.23719918	     24.20918843	      0.61639132	      0.42253005	     24.53902975	     27.94009044	     -7.50098562	     16.71766820	     -1.94686476	     -7.49842364	     29.70572902	     -1.84001216	      0.51846278	     11.33517196	     16.92797903	     -7.50098562	    -30.73905587	      4.57859328	     -3.47137232	      6.28702751	    -12.15979463	     -2.45808701	     48.52780905	     90.00000001	      0.00000000	      0.00000000	     13.80423868	     -9.79760646	     25.15283325	     51.13926930	     90.00000001	      0.00000000	      0.00000000
      4.32000000	     13.04478422	      0.47470617	      3.09694302	      0.22309320	      0.88219333	     -0.14202710	    -11.05429683	      2.20567943	    -17.27413304	     24.23354635	      0.63996749	      0.42295517	     24.61536520	     27.93796597	     -7.50098388	     16.84649864	     -1.92316944	     -7.64455517	     29.55449987	     -1.72670457	      0.51582333	     11.34378242	     16.90144244	     -7.50098388	    -30.71415800	      4.68761724	     -3.49807911	      6.28382662	    -12.26791596	     -2.45040742	     48.37039925	     90.00000001	      0.00000000	      0.00000000	     13.78758400	     -9.77860898	     25.14722745	     51.12990828	     90.00000001	      0.00000000	      0.00000000
